<svg xmlns="http://www.w3.org/2000/svg" xmlns:xlink="http://www.w3.org/1999/xlink" contentStyleType="text/css" data-diagram-type="MINDMAP" height="2156.25px" preserveAspectRatio="none" style="width:4197px;height:2156px;" version="1.1" viewBox="0 0 4197 2156" width="4197.9167px" zoomAndPan="magnify"><defs/><g><rect fill="#F1F1F1" height="188.0137" rx="31.25" ry="31.25" style="stroke:#181818;stroke-width:7.8125;" width="456.8227" x="1989.4714" y="980.7078"/><text fill="#000000" font-family="Arial" font-size="72.9167" lengthAdjust="spacing" textLength="352.656" x="2041.5548" y="1101.1861">LLM Agent</text><text fill="#000000" font-family="Arial" font-size="72.9167" lengthAdjust="spacing" textLength="194.5394" x="2722.3358" y="1101.1861">Part 3</text><rect fill="#F1F1F1" height="188.0137" rx="31.25" ry="31.25" style="stroke:#181818;stroke-width:7.8125;" width="241.9891" x="3177.2919" y="980.7078"/><text fill="#000000" font-family="Arial" font-size="72.9167" lengthAdjust="spacing" textLength="137.8225" x="3229.3752" y="1101.1861">A2A</text><rect fill="#F1F1F1" height="188.0137" rx="31.25" ry="31.25" style="stroke:#181818;stroke-width:7.8125;" width="456.8227" x="3679.6977" y="396.347"/><text fill="#000000" font-family="Arial" font-size="72.9167" lengthAdjust="spacing" textLength="352.656" x="3731.781" y="516.8254">LLM Agent</text><path d="M3419.281,1074.7147 L3471.3643,1074.7147 C3549.4893,1074.7147 3549.4893,490.3539 3627.6143,490.3539 L3679.6977,490.3539" fill="none" style="stroke:#333333;stroke-width:6.25;"/><rect fill="#F1F1F1" height="188.0137" rx="31.25" ry="31.25" style="stroke:#181818;stroke-width:7.8125;" width="456.8227" x="3679.6977" y="688.5274"/><text fill="#000000" font-family="Arial" font-size="72.9167" lengthAdjust="spacing" textLength="352.656" x="3731.781" y="809.0057">LLM Agent</text><path d="M3419.281,1074.7147 L3471.3643,1074.7147 C3549.4893,1074.7147 3549.4893,782.5343 3627.6143,782.5343 L3679.6977,782.5343" fill="none" style="stroke:#333333;stroke-width:6.25;"/><rect fill="#F1F1F1" height="188.0137" rx="31.25" ry="31.25" style="stroke:#181818;stroke-width:7.8125;" width="456.8227" x="3679.6977" y="980.7078"/><text fill="#000000" font-family="Arial" font-size="72.9167" lengthAdjust="spacing" textLength="352.656" x="3731.781" y="1101.1861">LLM Agent</text><path d="M3419.281,1074.7147 L3471.3643,1074.7147 C3549.4893,1074.7147 3549.4893,1074.7147 3627.6143,1074.7147 L3679.6977,1074.7147" fill="none" style="stroke:#333333;stroke-width:6.25;"/><rect fill="#F1F1F1" height="188.0137" rx="31.25" ry="31.25" style="stroke:#181818;stroke-width:7.8125;" width="456.8227" x="3679.6977" y="1272.8882"/><text fill="#000000" font-family="Arial" font-size="72.9167" lengthAdjust="spacing" textLength="352.656" x="3731.781" y="1393.3665">LLM Agent</text><path d="M3419.281,1074.7147 L3471.3643,1074.7147 C3549.4893,1074.7147 3549.4893,1366.895 3627.6143,1366.895 L3679.6977,1366.895" fill="none" style="stroke:#333333;stroke-width:6.25;"/><rect fill="#F1F1F1" height="188.0137" rx="31.25" ry="31.25" style="stroke:#181818;stroke-width:7.8125;" width="456.8227" x="3679.6977" y="1565.0686"/><text fill="#000000" font-family="Arial" font-size="72.9167" lengthAdjust="spacing" textLength="352.656" x="3731.781" y="1685.5469">LLM Agent</text><path d="M3419.281,1074.7147 L3471.3643,1074.7147 C3549.4893,1074.7147 3549.4893,1659.0754 3627.6143,1659.0754 L3679.6977,1659.0754" fill="none" style="stroke:#333333;stroke-width:6.25;"/><path d="M2916.8752,1074.7147 L2968.9585,1074.7147 C3047.0835,1074.7147 3047.0835,1074.7147 3125.2085,1074.7147 L3177.2919,1074.7147" fill="none" style="stroke:#333333;stroke-width:6.25;"/><path d="M2446.2941,1074.7147 L2498.3775,1074.7147 C2576.5025,1074.7147 2576.5025,1074.7147 2654.6275,1074.7147 L2706.7108,1074.7147" fill="none" style="stroke:#333333;stroke-width:6.25;"/><text fill="#000000" font-family="Arial" font-size="72.9167" lengthAdjust="spacing" textLength="194.5394" x="1518.8904" y="516.8254">Part 1</text><rect fill="#F1F1F1" height="188.0137" rx="31.25" ry="31.25" style="stroke:#181818;stroke-width:7.8125;" width="282.4707" x="976.003" y="250.2569"/><text fill="#000000" font-family="Arial" font-size="72.9167" lengthAdjust="spacing" textLength="178.304" x="1028.0863" y="370.7352">Tools</text><rect fill="#F1F1F1" height="188.0137" rx="31.25" ry="31.25" style="stroke:#181818;stroke-width:7.8125;" width="606.7149" x="108.8715" y="104.1667"/><text fill="#000000" font-family="Arial" font-size="72.9167" lengthAdjust="spacing" textLength="502.5482" x="160.9548" y="224.645">SimpleFunction</text><path d="M976.003,344.2637 L923.9197,344.2637 C845.7947,344.2637 845.7947,198.1735 767.6697,198.1735 L715.5863,198.1735" fill="none" style="stroke:#333333;stroke-width:6.25;"/><rect fill="#F1F1F1" height="188.0137" rx="31.25" ry="31.25" style="stroke:#181818;stroke-width:7.8125;" width="663.503" x="52.0833" y="396.347"/><text fill="#000000" font-family="Arial" font-size="72.9167" lengthAdjust="spacing" textLength="559.3363" x="104.1667" y="516.8254">PydanticFunction</text><path d="M976.003,344.2637 L923.9197,344.2637 C845.7947,344.2637 845.7947,490.3539 767.6697,490.3539 L715.5863,490.3539" fill="none" style="stroke:#333333;stroke-width:6.25;"/><path d="M1518.8904,490.3539 L1466.807,490.3539 C1388.682,490.3539 1388.682,344.2637 1310.557,344.2637 L1258.4737,344.2637" fill="none" style="stroke:#333333;stroke-width:6.25;"/><rect fill="#F1F1F1" height="188.0137" rx="31.25" ry="31.25" style="stroke:#181818;stroke-width:7.8125;" width="246.0124" x="1012.4613" y="688.5274"/><text fill="#000000" font-family="Arial" font-size="72.9167" lengthAdjust="spacing" textLength="141.8457" x="1064.5447" y="809.0057">LLM</text><rect fill="#F1F1F1" height="188.0137" rx="31.25" ry="31.25" style="stroke:#181818;stroke-width:7.8125;" width="335.1288" x="416.9159" y="688.5274"/><text fill="#000000" font-family="Arial" font-size="72.9167" lengthAdjust="spacing" textLength="230.9621" x="468.9992" y="809.0057">Ollama</text><path d="M1012.4613,782.5343 L960.378,782.5343 C882.253,782.5343 882.253,782.5343 804.128,782.5343 L752.0447,782.5343" fill="none" style="stroke:#333333;stroke-width:6.25;"/><path d="M1518.8904,490.3539 L1466.807,490.3539 C1388.682,490.3539 1388.682,782.5343 1310.557,782.5343 L1258.4737,782.5343" fill="none" style="stroke:#333333;stroke-width:6.25;"/><path d="M1989.4714,1074.7147 L1937.3881,1074.7147 C1859.2631,1074.7147 1859.2631,490.3539 1781.1381,490.3539 L1729.0548,490.3539" fill="none" style="stroke:#333333;stroke-width:6.25;"/><text fill="#000000" font-family="Arial" font-size="72.9167" lengthAdjust="spacing" textLength="194.5394" x="1518.8904" y="1539.4567">Part 2</text><rect fill="#F1F1F1" height="188.0137" rx="31.25" ry="31.25" style="stroke:#181818;stroke-width:7.8125;" width="464.7624" x="793.7113" y="980.7078"/><text fill="#000000" font-family="Arial" font-size="72.9167" lengthAdjust="spacing" textLength="360.5957" x="845.7947" y="1101.1861">MCP Tools</text><path d="M1518.8904,1512.9852 L1466.807,1512.9852 C1388.682,1512.9852 1388.682,1074.7147 1310.557,1074.7147 L1258.4737,1074.7147" fill="none" style="stroke:#333333;stroke-width:6.25;"/><rect fill="#F1F1F1" height="188.0137" rx="31.25" ry="31.25" style="stroke:#181818;stroke-width:7.8125;" width="274.3174" x="984.1563" y="1272.8882"/><text fill="#000000" font-family="Arial" font-size="72.9167" lengthAdjust="spacing" textLength="170.1508" x="1036.2396" y="1393.3665">Skills</text><path d="M1518.8904,1512.9852 L1466.807,1512.9852 C1388.682,1512.9852 1388.682,1366.895 1310.557,1366.895 L1258.4737,1366.895" fill="none" style="stroke:#333333;stroke-width:6.25;"/><rect fill="#F1F1F1" height="188.0137" rx="31.25" ry="31.25" style="stroke:#181818;stroke-width:7.8125;" width="720.3267" x="538.147" y="1565.0686"/><text fill="#000000" font-family="Arial" font-size="72.9167" lengthAdjust="spacing" textLength="616.1601" x="590.2303" y="1685.5469">Human in the Loop</text><path d="M1518.8904,1512.9852 L1466.807,1512.9852 C1388.682,1512.9852 1388.682,1659.0754 1310.557,1659.0754 L1258.4737,1659.0754" fill="none" style="stroke:#333333;stroke-width:6.25;"/><rect fill="#F1F1F1" height="188.0137" rx="31.25" ry="31.25" style="stroke:#181818;stroke-width:7.8125;" width="367.4927" x="890.981" y="1857.2489"/><text fill="#000000" font-family="Arial" font-size="72.9167" lengthAdjust="spacing" textLength="263.326" x="943.0644" y="1977.7273">Memory</text><path d="M1518.8904,1512.9852 L1466.807,1512.9852 C1388.682,1512.9852 1388.682,1951.2558 1310.557,1951.2558 L1258.4737,1951.2558" fill="none" style="stroke:#333333;stroke-width:6.25;"/><path d="M1989.4714,1074.7147 L1937.3881,1074.7147 C1859.2631,1074.7147 1859.2631,1512.9852 1781.1381,1512.9852 L1729.0548,1512.9852" fill="none" style="stroke:#333333;stroke-width:6.25;"/><!--SRC=[xLLDSzem4BtxLsp99M4c11n8KquXaAIb9c42oPKHrXeqwCELvMJehw-C-P31f9cUwujjxNjlLs_rSPCOeerWaWeI0-TYGcOepMIQCaudmduIFX6A8lU-C1dob2BKQXUX4aB9YwbIY_EG8v6rE1NSyweG10FeP19UjJg1eHM7I_jPXOxVoTv5nB__UXmZ0mcZwEqoDLQPnahn9CUFc8WvtgSoD4p9V6ouf4GQ5hgZcN0UVUAS2BAJz5VXGNUuauNHWl7rv_TK40bCWfaZ14h5EHo5qalFkq7hQ-wj_VcyrPwNB9YCYIO2HdD2rJkJCuW8Jz29FAjKqgxI4ZKqV9T3OmQjUjqTkYNXOgPp1bSQtkVCk68ThTLx7ZgvlBnq8W6Jc0Vs8olEUCx2XSGaWKQjK4Hc7mjPRCtUJtuIDPeHYQP7q4fJr6kax_lbg26XD7Fbgc0M_afHXXYm2BEwosVj41wLmSFgecYAL_iejogiqqQpuPDIZEE8cwg74KcvkLVIF1A1KEbeHdYb735Yln4QpNspjsGeeMyHAp8KwOvp7rImXzfKuI36pDWDTLnX6y-vhR9GQMithNkmdOW_I720soJQwuLhrPW9J2ebW8rJRhC3jDkIxYeu8Ey0UUh22knoaYHERkUfT5MgcTsi8qChPPHrDSvJy6-5wnYZsJGjpEylqWNADiUXz5ECccGdukUb2nHN-cWDFq8bLy3wKIq7ulRTe4PbbZ4ELS8o74oLCKgKxV-1tNtsTErmDfEWyGrrWZscCJ_m_rzJ7rnJGsxJlWm2o4pBNBR7UjrlrPgd8sAWdqhmhw7-jLt_rlPRSDSRGnO-yquVXW4aTgs429GbURij_yphapS2pwcTZC0ss3RBVk_dPW3kv1lJIcRtdzT_7Um0LytpMsPiIxMj15u7tlfuj8nGPKT_6rx6z-VNNa3aBBNTRWDApwvMQVIo3TtE7m00]--></g></svg>
